<svg width="270" height="7" viewBox="0 0 270 7" fill="none" xmlns="http://www.w3.org/2000/svg">
<g clip-path="url(#clip0_965_4114)">
<path fill-rule="evenodd" clip-rule="evenodd" d="M266.12 0.146447L269.351 3.32843C269.55 3.52369 269.55 3.84027 269.351 4.03553L266.12 7.21751C265.922 7.41278 265.6 7.41278 265.402 7.21751C265.204 7.02225 265.204 6.70567 265.402 6.51041L267.766 4.18198L204 4.18198V3.18198L267.766 3.18198L265.402 0.853553C265.204 0.658291 265.204 0.341709 265.402 0.146447C265.6 -0.0488155 265.922 -0.0488155 266.12 0.146447Z" fill="#8C959E"/>
<path fill-rule="evenodd" clip-rule="evenodd" d="M-57.7058 0.139209L-71.3711 3.16392C-72.2096 3.34953 -72.2096 3.65047 -71.3711 3.83608L-57.7058 6.86079C-56.8673 7.0464 -55.5077 7.0464 -54.6691 6.86079C-53.8305 6.67518 -53.8305 6.37424 -54.6691 6.18863L-64.6687 3.97529L205 3.97529V3.02471L-64.6687 3.02471L-54.6691 0.811367C-53.8305 0.625755 -53.8305 0.32482 -54.6691 0.139209C-55.5077 -0.0464029 -56.8673 -0.0464029 -57.7058 0.139209Z" fill="#8C959E"/>
</g>
<defs>
<clipPath id="clip0_965_4114">
<rect width="270" height="7" fill="white"/>
</clipPath>
</defs>
</svg>
