<svg width="46" height="42" viewBox="0 0 46 42" fill="none" xmlns="http://www.w3.org/2000/svg">
<path d="M14.2 9.8C21.4902 9.8 27.4 7.83005 27.4 5.4C27.4 2.96995 21.4902 1 14.2 1C6.90984 1 1 2.96995 1 5.4C1 7.83005 6.90984 9.8 14.2 9.8Z" stroke="white" stroke-width="2" stroke-linecap="round" stroke-linejoin="round"/>
<path d="M27.4 25.9333C27.4 28.368 21.5333 30.3333 14.2 30.3333C6.86667 30.3333 1 28.368 1 25.9333" stroke="white" stroke-width="2" stroke-linecap="round" stroke-linejoin="round"/>
<path d="M27.4 15.6667C27.4 18.1014 21.5333 20.0667 14.2 20.0667C6.86667 20.0667 1 18.1014 1 15.6667" stroke="white" stroke-width="2" stroke-linecap="round" stroke-linejoin="round"/>
<path d="M1 5.3999V36.1999C1 38.6346 6.86667 40.5999 14.2 40.5999C21.5333 40.5999 27.4 38.6346 27.4 36.1999V5.3999" stroke="white" stroke-width="2" stroke-linecap="round" stroke-linejoin="round"/>
<path d="M45.9999 23C45.9999 22.4478 45.5522 22 44.9999 22C44.4476 22 43.9999 22.4478 43.9999 23H45.9999ZM27.3999 10.3298L27.2083 9.34836C26.7387 9.44003 26.3999 9.85142 26.3999 10.3298H27.3999ZM27.3999 35.6745H26.3999C26.3999 36.1533 26.7393 36.5649 27.2093 36.6562L27.3999 35.6745ZM43.9999 13.76C43.9999 13.8744 43.9325 14.1381 43.4541 14.5198C42.9856 14.8936 42.2462 15.2743 41.2435 15.6127C39.2483 16.2861 36.428 16.72 33.2666 16.72V18.72C36.5853 18.72 39.6316 18.2676 41.8831 17.5077C43.0037 17.1295 43.9826 16.6568 44.7016 16.0831C45.4106 15.5173 45.9999 14.7392 45.9999 13.76H43.9999ZM33.2666 10.8C36.428 10.8 39.2483 11.234 41.2435 11.9074C42.2462 12.2458 42.9856 12.6265 43.4541 13.0003C43.9325 13.382 43.9999 13.6457 43.9999 13.76H45.9999C45.9999 12.7809 45.4106 12.0028 44.7016 11.437C43.9826 10.8633 43.0037 10.3906 41.8831 10.0124C39.6316 9.25255 36.5853 8.80005 33.2666 8.80005V10.8ZM43.9999 23C43.9999 23.1188 43.9311 23.3832 43.4574 23.7632C42.9924 24.1363 42.2572 24.5165 41.2575 24.8544C39.2679 25.5269 36.448 25.96 33.2666 25.96V27.96C36.6036 27.96 39.6504 27.5088 41.8979 26.7491C43.0166 26.3709 43.9926 25.898 44.709 25.3232C45.4168 24.7553 45.9999 23.9769 45.9999 23H43.9999ZM33.2666 37.2C36.6036 37.2 39.6504 36.7488 41.8979 35.9891C43.0166 35.6109 43.9926 35.138 44.709 34.5632C45.4168 33.9953 45.9999 33.2169 45.9999 32.24H43.9999C43.9999 32.3588 43.9311 32.6232 43.4574 33.0032C42.9924 33.3763 42.2572 33.7565 41.2575 34.0944C39.2679 34.7669 36.448 35.2 33.2666 35.2V37.2ZM45.9999 32.24V13.76H43.9999V32.24H45.9999ZM27.5915 11.3113C29.248 10.9879 31.1871 10.8 33.2666 10.8V8.80005C31.0718 8.80005 29.0034 8.99788 27.2083 9.34836L27.5915 11.3113ZM33.2666 16.72C31.1871 16.72 29.248 16.5322 27.5915 16.2088L27.2083 18.1717C29.0034 18.5222 31.0718 18.72 33.2666 18.72V16.72ZM26.3999 10.3298V17.1903H28.3999V10.3298H26.3999ZM33.2666 25.96C31.1808 25.96 29.2433 25.7738 27.5905 25.4528L27.2093 27.4162C29.0006 27.764 31.0668 27.96 33.2666 27.96V25.96ZM28.3999 26.4345V17.1903H26.3999V26.4345H28.3999ZM27.2093 36.6562C29.0007 37.004 31.0668 37.2 33.2666 37.2V35.2C31.1808 35.2 29.2433 35.0138 27.5905 34.6928L27.2093 36.6562ZM26.3999 26.4345V35.6745H28.3999V26.4345H26.3999Z" fill="white"/>
</svg>
